<svg viewBox="0 0 24 22" xmlns="http://www.w3.org/2000/svg"><path fill-rule="evenodd" clip-rule="evenodd" d="M12.125 5.976c3.396 0 6.792-.001 10.188.002.111 0 .152-.02.15-.135-.008-.434 0-.869-.004-1.304-.006-.816-.678-1.453-1.537-1.456-.665-.003-1.33 0-1.996-.003-.091 0-.116.022-.115.109.006.32.003.64.002.961a.75.75 0 0 1-.768.744.751.751 0 0 1-.769-.744c-.002-.307-.006-.615.003-.922.004-.12-.03-.15-.157-.149-3.061.004-6.122.003-9.183.003-.368 0-.735.003-1.103-.002-.093-.002-.114.025-.113.109.005.325.005.65.001.975a.752.752 0 0 1-.77.73c-.426-.003-.764-.324-.767-.731-.002-.32-.005-.641.003-.962.002-.1-.027-.122-.13-.122-.652.005-1.303.002-1.954.003-.894.002-1.564.637-1.566 1.484-.001.417.008.834-.004 1.251-.005.142.045.161.178.161C5.142 5.975 8.57 5.976 12 5.976h.125ZM1.685 7.425c-.11 0-.148.018-.148.133.003 3.495.003 7.964.003 11.459 0 .118.008.237.036.352.167.698.773 1.153 1.536 1.153H20.85c.95 0 1.61-.623 1.61-1.522.001-3.482 0-7.938.004-11.42 0-.127-.032-.156-.166-.156-3.429.004-6.857.003-10.285.003-3.442 0-6.884 0-10.327-.002Zm1.437 14.548c-1.505 0-2.728-.925-3.056-2.311a2.55 2.55 0 0 1-.065-.588c0-4.523-.002-10.02 0-14.542 0-1.466 1.146-2.688 2.686-2.879.125-.015.25-.021.375-.021.67 0 1.34-.002 2.01.001.089 0 .12-.018.117-.107-.006-.268-.004-.536-.002-.804.004-.4.34-.72.76-.722.426-.002.772.317.777.72.003.273.004.545 0 .817-.002.075.02.106.1.095.023-.003.046 0 .07 0 3.405 0 6.81-.002 10.216.003.147 0 .174-.039.169-.166-.01-.245-.005-.491-.003-.737.003-.408.342-.731.766-.732.427 0 .767.318.77.725.003.254.007.51-.002.764-.003.11.019.148.149.146.65-.008 1.302-.004 1.953-.003 1.604 0 2.915 1.123 3.068 2.627.012.118.02.236.02.355l-.001 14.45c0 .65-.204 1.244-.629 1.76-.62.753-1.442 1.145-2.454 1.147-2.972.006-5.945.002-8.918.002H3.122Z" /><path fill-rule="evenodd" clip-rule="evenodd" d="M18.007 12.997c-.624 0-1.248-.003-1.871.003-.11.001-.136-.028-.136-.143.004-1.238.005-2.476 0-3.714 0-.12.033-.142.138-.142 1.243.004 2.486.004 3.73-.001.112 0 .132.035.131.145A541.2 541.2 0 0 0 20 12.86c0 .117-.03.14-.136.14-.619-.006-1.238-.003-1.857-.003ZM5.995 12.998c-.624 0-1.248-.002-1.873.002-.089 0-.122-.016-.122-.122.004-1.249.004-2.498 0-3.747 0-.112.034-.131.13-.13 1.245.002 2.488.003 3.732-.001.105 0 .138.022.138.141a467.98 467.98 0 0 0 0 3.732c0 .119-.04.128-.132.127-.624-.004-1.248-.002-1.873-.002ZM12.008 9.003c.615 0 1.23.002 1.844-.002.107-.001.149.018.148.147a459.493 459.493 0 0 0 0 3.712c0 .118-.031.14-.136.14a510.124 510.124 0 0 0-3.732 0c-.113 0-.132-.035-.132-.144a574.36 574.36 0 0 0 0-3.713c0-.114.025-.144.135-.143.624.006 1.249.003 1.873.003ZM18 15.002c.624 0 1.247.003 1.871-.002.1 0 .13.022.129.131a611.33 611.33 0 0 0 0 3.734c0 .104-.02.135-.125.135a507.64 507.64 0 0 0-3.743 0c-.114 0-.132-.037-.132-.146.004-1.24.004-2.479 0-3.718 0-.108.027-.137.128-.136.624.005 1.248.002 1.872.002ZM6.009 15.002c.614 0 1.229.002 1.843-.002.103 0 .149.012.148.144-.006 1.24-.004 2.48-.001 3.719 0 .102-.018.137-.124.137a554.037 554.037 0 0 0-3.759 0c-.1 0-.116-.034-.116-.128.003-1.25.004-2.5 0-3.75 0-.105.033-.122.122-.122.63.004 1.258.002 1.887.002ZM11.996 15.003c.62 0 1.239.002 1.858-.003.105 0 .147.018.146.146a400.62 400.62 0 0 0 0 3.701c0 .135-.04.153-.153.153a585.552 585.552 0 0 0-3.701 0c-.107 0-.146-.018-.145-.145.005-1.234.005-2.468-.001-3.702 0-.134.038-.154.152-.153.615.006 1.23.003 1.844.003Z" /></svg>