<svg viewBox="0 0 28 23" xmlns="http://www.w3.org/2000/svg"><path fill-rule="evenodd" clip-rule="evenodd" d="M8.169 14.8c-1.172-2.138-.878-5.132 1.334-7.115 2.093-1.877 5.008-2.001 6.968-.959-.617.6-1.23 1.2-1.85 1.794-.04.038-.13.038-.195.037-.44-.001-.892-.072-1.32-.002-2.078.337-3.419 2.233-3.05 4.254.01.06-.005.147-.044.187-.606.6-1.219 1.195-1.843 1.805ZM23.423 0c-1.364 1.325-2.727 2.65-4.095 3.971a.23.23 0 0 1-.195.041 15.04 15.04 0 0 0-3.666-.885 15.42 15.42 0 0 0-3.183-.023c-1.232.116-2.429.377-3.589.788a14.77 14.77 0 0 0-5.63 3.562 14.18 14.18 0 0 0-3.042 4.55.398.398 0 0 0 .006.28c.966 2.301 2.459 4.223 4.45 5.785.041.032.082.063.121.097.009.007.012.02.023.04L1.228 21.49 2.802 23 25 1.513c-.453-.438-.927-.897-1.4-1.357-.05-.049-.092-.104-.138-.156h-.039ZM23.672 7 22.05 8.46c-.654.589-1.307 1.18-1.964 1.765-.097.085-.12.156-.071.277 1.312 3.224-.851 6.76-4.58 7.498a6.792 6.792 0 0 1-3.487-.206c-.154-.05-.246-.033-.36.071-.795.723-1.597 1.439-2.397 2.158-.056.05-.109.102-.191.18.299.088.573.175.852.25 1.565.413 3.164.599 4.793.535 3.2-.126 6.08-1.06 8.613-2.83 2.123-1.482 3.687-3.352 4.71-5.587a.33.33 0 0 0 .013-.249c-.94-2.089-2.38-3.853-4.309-5.322Z" /><path fill-rule="evenodd" clip-rule="evenodd" d="M14 14.99c2.249.147 4.205-1.443 3.983-2.99L14 14.99Z" /></svg>